<svg width="282" height="45" viewBox="0 0 282 45" fill="none" xmlns="http://www.w3.org/2000/svg">
<path d="M9.884 30.422V43.106H11.046V30.422H9.884ZM4.368 31.402C2.506 31.402 1.162 33.124 1.162 35.812C1.162 38.514 2.506 40.236 4.368 40.236C6.244 40.236 7.588 38.514 7.588 35.812C7.588 33.124 6.244 31.402 4.368 31.402ZM4.368 32.452C5.614 32.452 6.468 33.768 6.468 35.812C6.468 37.87 5.614 39.214 4.368 39.214C3.136 39.214 2.268 37.87 2.268 35.812C2.268 33.768 3.136 32.452 4.368 32.452ZM13.5789 40.516V41.482H25.0449V40.516H13.5789ZM18.7169 33.124V33.404C18.7169 35.448 16.6729 37.03 14.2509 37.464L14.7129 38.416C17.4289 37.87 19.7389 36.078 19.7389 33.404V33.124H18.7169ZM18.8709 33.124V33.404C18.8709 36.078 21.1669 37.87 23.8829 38.416L24.3449 37.464C21.9229 37.03 19.8789 35.448 19.8789 33.404V33.124H18.8709ZM14.6289 32.452V33.404H23.9529V32.452H14.6289ZM18.7169 30.73V32.802H19.8789V30.73H18.7169Z" fill="#6C5CE7"/>
<path d="M33.4893 31.528V33.796C33.4893 36.106 32.0473 38.542 30.2133 39.466L30.9273 40.39C32.9293 39.326 34.4413 36.596 34.4413 33.796V31.528H33.4893ZM33.6993 31.528V33.796C33.6993 36.512 35.1693 39.102 37.1293 40.152L37.8433 39.228C36.0513 38.332 34.6373 36.022 34.6373 33.796V31.528H33.6993ZM38.9493 30.436V43.092H40.1253V30.436H38.9493ZM39.8453 35.56V36.54H42.1973V35.56H39.8453ZM51.9262 30.45V37.982H53.0882V30.45H51.9262ZM52.7382 33.67V34.65H54.9642V33.67H52.7382ZM45.1082 38.612V42.924H53.0882V38.612H45.1082ZM51.9542 39.536V41.986H46.2562V39.536H51.9542ZM43.8202 36.372V37.338H44.8142C47.1522 37.338 48.8182 37.254 50.8202 36.918L50.7222 35.966C48.7482 36.316 47.1102 36.372 44.8142 36.372H43.8202ZM43.7922 31.122V32.074H48.3422V33.698H43.8202V36.918H44.9542V34.594H49.4902V31.122H43.7922ZM56.1531 35.714V36.666H67.5911V35.714H56.1531ZM57.6651 33.754V34.692H66.2331V33.754H57.6651ZM57.6651 30.842V34.51H58.8131V31.794H66.0931V30.842H57.6651ZM57.5251 37.758V38.668H64.9731V39.872H57.5531V42.336H58.7011V40.74H66.1211V37.758H57.5251ZM57.5531 42.028V42.952H66.4991V42.028H57.5531ZM74.156 35.35V36.316H76.55V35.35H74.156ZM78.664 30.436V43.092H79.784V30.436H78.664ZM76.158 30.702V42.462H77.264V30.702H76.158ZM71.874 31.486C70.236 31.486 69.186 33.18 69.186 35.896C69.186 38.612 70.236 40.306 71.874 40.306C73.512 40.306 74.576 38.612 74.576 35.896C74.576 33.18 73.512 31.486 71.874 31.486ZM71.874 32.564C72.882 32.564 73.512 33.852 73.512 35.896C73.512 37.94 72.882 39.228 71.874 39.228C70.88 39.228 70.25 37.94 70.25 35.896C70.25 33.852 70.88 32.564 71.874 32.564ZM91.5429 30.436V43.092H92.6629V30.436H91.5429ZM86.0549 35.602V36.54H89.2469V35.602H86.0549ZM88.9109 30.758V42.448H90.0029V30.758H88.9109ZM86.2089 32.032V32.242C86.2089 35.224 84.8789 37.744 81.8969 39.536L82.5829 40.362C85.9989 38.332 87.3289 35.35 87.3289 32.032H86.2089ZM82.4569 32.032V32.984H86.6429V32.032H82.4569ZM101.821 31.528V33.796C101.821 36.106 100.379 38.542 98.5453 39.466L99.2593 40.39C101.261 39.326 102.773 36.596 102.773 33.796V31.528H101.821ZM102.031 31.528V33.796C102.031 36.512 103.501 39.102 105.461 40.152L106.175 39.228C104.383 38.332 102.969 36.022 102.969 33.796V31.528H102.031ZM107.281 30.436V43.092H108.457V30.436H107.281ZM108.177 35.56V36.54H110.529V35.56H108.177ZM114.966 31.822V33.11C114.966 34.916 113.678 36.554 111.774 37.226L112.376 38.15C114.504 37.38 115.932 35.434 115.932 33.11V31.822H114.966ZM115.19 31.822V33.11C115.19 35.336 116.646 37.184 118.746 37.898L119.348 36.988C117.472 36.358 116.156 34.818 116.156 33.11V31.822H115.19ZM112.082 31.486V32.424H119.012V31.486H112.082ZM120.804 30.45V39.704H121.98V30.45H120.804ZM113.846 41.86V42.812H122.358V41.86H113.846ZM113.846 38.836V42.28H114.994V38.836H113.846ZM130.197 30.646C127.397 30.646 125.745 31.43 125.745 32.844C125.745 34.258 127.397 35.042 130.197 35.042C132.983 35.042 134.649 34.258 134.649 32.844C134.649 31.43 132.983 30.646 130.197 30.646ZM130.197 31.528C132.255 31.528 133.445 32.004 133.445 32.844C133.445 33.684 132.255 34.16 130.197 34.16C128.125 34.16 126.935 33.684 126.935 32.844C126.935 32.004 128.125 31.528 130.197 31.528ZM124.471 35.882V36.82H135.909V35.882H124.471ZM125.857 37.898V38.794H133.305V39.914H125.885V42.294H127.033V40.754H134.453V37.898H125.857ZM125.885 42.042V42.952H134.831V42.042H125.885ZM141.288 37.142V38.08H152.726V37.142H141.288ZM146.426 35.504V37.534H147.574V35.504H146.426ZM142.8 34.986V35.896H151.382V34.986H142.8ZM142.8 30.8V35.476H143.948V31.71H151.326V30.8H142.8ZM143.612 32.872V33.768H150.99V32.872H143.612ZM147 39.018C144.242 39.018 142.66 39.718 142.66 41.048C142.66 42.364 144.242 43.064 147 43.064C149.758 43.064 151.34 42.364 151.34 41.048C151.34 39.718 149.758 39.018 147 39.018ZM147 39.9C149.03 39.9 150.164 40.306 150.164 41.048C150.164 41.804 149.03 42.196 147 42.196C144.97 42.196 143.836 41.804 143.836 41.048C143.836 40.306 144.97 39.9 147 39.9ZM154.152 32.592V33.544H160.424V32.592H154.152ZM157.288 34.384C155.72 34.384 154.572 35.574 154.572 37.282C154.572 38.976 155.72 40.166 157.288 40.166C158.87 40.166 160.018 38.976 160.018 37.282C160.018 35.574 158.87 34.384 157.288 34.384ZM157.288 35.378C158.268 35.378 158.982 36.162 158.982 37.282C158.982 38.402 158.268 39.186 157.288 39.186C156.322 39.186 155.622 38.402 155.622 37.282C155.622 36.162 156.322 35.378 157.288 35.378ZM163.77 30.436V43.092H164.89V30.436H163.77ZM161.754 35.756V36.722H164.148V35.756H161.754ZM161.068 30.716V42.476H162.16V30.716H161.068ZM156.728 30.8V33.18H157.876V30.8H156.728ZM174.119 32.242V34.3C174.119 36.442 172.593 38.85 170.787 39.732L171.459 40.656C173.433 39.648 175.043 36.932 175.043 34.3V32.242H174.119ZM174.329 32.242V34.3C174.329 36.806 175.855 39.354 177.857 40.348L178.515 39.424C176.681 38.556 175.253 36.302 175.253 34.3V32.242H174.329ZM171.235 31.724V32.704H178.053V31.724H171.235ZM179.551 30.436V43.092H180.727V30.436H179.551ZM180.447 35.546V36.526H182.799V35.546H180.447ZM193.074 30.45V39.718H194.25V30.45H193.074ZM186.116 41.86V42.812H194.628V41.86H186.116ZM186.116 38.864V42.308H187.264V38.864H186.116ZM187.166 31.136V32.424C187.166 34.384 185.906 36.232 184.002 36.974L184.604 37.912C186.732 37.044 188.132 34.888 188.132 32.424V31.136H187.166ZM187.376 31.136V32.424C187.376 34.832 188.776 36.862 190.876 37.674L191.492 36.736C189.602 36.05 188.328 34.328 188.328 32.424V31.136H187.376ZM202.467 30.646C199.667 30.646 198.015 31.43 198.015 32.844C198.015 34.258 199.667 35.042 202.467 35.042C205.253 35.042 206.919 34.258 206.919 32.844C206.919 31.43 205.253 30.646 202.467 30.646ZM202.467 31.528C204.525 31.528 205.715 32.004 205.715 32.844C205.715 33.684 204.525 34.16 202.467 34.16C200.395 34.16 199.205 33.684 199.205 32.844C199.205 32.004 200.395 31.528 202.467 31.528ZM196.741 35.882V36.82H208.179V35.882H196.741ZM198.127 37.898V38.794H205.575V39.914H198.155V42.294H199.303V40.754H206.723V37.898H198.127ZM198.155 42.042V42.952H207.101V42.042H198.155ZM222.223 30.436V36.876H223.385V30.436H222.223ZM222.881 33.152V34.118H225.247V33.152H222.881ZM215.349 37.478V38.402H222.251V39.704H215.377V42.476H216.525V40.586H223.385V37.478H215.349ZM215.377 41.986V42.924H223.847V41.986H215.377ZM217.057 30.884C215.181 30.884 213.795 32.046 213.795 33.698C213.795 35.364 215.181 36.526 217.057 36.526C218.961 36.526 220.333 35.364 220.333 33.698C220.333 32.046 218.961 30.884 217.057 30.884ZM217.057 31.836C218.303 31.836 219.213 32.606 219.213 33.698C219.213 34.804 218.303 35.574 217.057 35.574C215.839 35.574 214.929 34.804 214.929 33.698C214.929 32.606 215.839 31.836 217.057 31.836ZM235.69 30.422V43.106H236.852V30.422H235.69ZM233.198 33.32V34.272H235.998V33.32H233.198ZM226.912 39.186V40.166H227.85C229.852 40.166 231.476 40.096 233.464 39.788L233.352 38.822C231.42 39.13 229.81 39.186 227.85 39.186H226.912ZM226.884 31.57V32.536H231.266V35.154H226.912V39.41H228.06V36.106H232.414V31.57H226.884ZM233.114 36.778V37.73H235.914V36.778H233.114ZM244.397 31.682V32.214C244.397 33.88 242.227 35.336 240.001 35.658L240.449 36.582C242.997 36.148 245.405 34.482 245.405 32.214V31.682H244.397ZM244.691 31.682V32.214C244.691 34.482 247.085 36.148 249.647 36.582L250.081 35.658C247.869 35.336 245.685 33.88 245.685 32.214V31.682H244.691ZM244.439 38.262V43.092H245.587V38.262H244.439ZM239.329 37.646V38.598H250.767V37.646H239.329ZM240.393 31.22V32.158H249.661V31.22H240.393ZM257.192 34.958V35.924H259.614V34.958H257.192ZM254.826 31.626V34.034C254.826 36.204 253.79 38.472 252.054 39.494L252.782 40.376C254.63 39.242 255.736 36.68 255.736 34.034V31.626H254.826ZM255.05 31.626V33.992C255.05 36.456 256.072 38.976 257.892 40.096L258.564 39.186C256.898 38.178 255.946 36.022 255.946 33.992V31.626H255.05ZM261.84 30.436V43.092H262.96V30.436H261.84ZM259.278 30.702V42.462H260.37V30.702H259.278ZM267.887 36.946V40.74H269.035V36.946H267.887ZM272.563 36.946V40.74H273.725V36.946H272.563ZM265.087 40.516V41.482H276.553V40.516H265.087ZM270.799 31.234C268.111 31.234 266.193 32.508 266.193 34.496C266.193 36.47 268.111 37.744 270.799 37.744C273.473 37.744 275.391 36.47 275.391 34.496C275.391 32.508 273.473 31.234 270.799 31.234ZM270.799 32.158C272.829 32.158 274.271 33.082 274.271 34.496C274.271 35.896 272.829 36.82 270.799 36.82C268.769 36.82 267.313 35.896 267.313 34.496C267.313 33.082 268.769 32.158 270.799 32.158ZM279.891 31.8182L279.791 39.1364H278.638L278.538 31.8182H279.891ZM279.214 42.0795C278.969 42.0795 278.759 41.9917 278.583 41.8161C278.407 41.6404 278.32 41.4299 278.32 41.1847C278.32 40.9394 278.407 40.7289 278.583 40.5533C278.759 40.3776 278.969 40.2898 279.214 40.2898C279.46 40.2898 279.67 40.3776 279.846 40.5533C280.022 40.7289 280.109 40.9394 280.109 41.1847C280.109 41.3471 280.068 41.4962 279.985 41.6321C279.906 41.768 279.798 41.8774 279.662 41.9602C279.529 42.0398 279.38 42.0795 279.214 42.0795Z" fill="#777777"/>
<path d="M77.7614 19V4.45455H82.6761C83.8172 4.45455 84.75 4.66051 85.4744 5.07244C86.2036 5.47964 86.7434 6.03125 87.0938 6.72727C87.4441 7.4233 87.6193 8.19981 87.6193 9.05682C87.6193 9.91383 87.4441 10.6927 87.0938 11.3935C86.7481 12.0942 86.2131 12.6529 85.4886 13.0696C84.7642 13.4815 83.8362 13.6875 82.7045 13.6875H79.1818V12.125H82.6477C83.429 12.125 84.0563 11.9901 84.5298 11.7202C85.0033 11.4503 85.3466 11.0857 85.5597 10.6264C85.7775 10.1624 85.8864 9.6392 85.8864 9.05682C85.8864 8.47443 85.7775 7.9536 85.5597 7.49432C85.3466 7.03504 85.0009 6.67519 84.5227 6.41477C84.0445 6.14962 83.41 6.01705 82.6193 6.01705H79.5227V19H77.7614ZM90.2294 19V8.09091H91.8487V9.73864H91.9624C92.1612 9.19886 92.5211 8.76089 93.0419 8.42472C93.5627 8.08854 94.1499 7.92045 94.8033 7.92045C94.9264 7.92045 95.0803 7.92282 95.2649 7.92756C95.4496 7.93229 95.5893 7.93939 95.6839 7.94886V9.65341C95.6271 9.6392 95.4969 9.6179 95.2933 9.58949C95.0945 9.55634 94.8838 9.53977 94.6612 9.53977C94.1309 9.53977 93.6574 9.65104 93.2408 9.87358C92.8288 10.0914 92.5021 10.3944 92.2607 10.7827C92.0239 11.1662 91.9055 11.6042 91.9055 12.0966V19H90.2294ZM101.771 19.2273C100.786 19.2273 99.9216 18.9929 99.1783 18.5241C98.4396 18.0554 97.862 17.3996 97.4453 16.5568C97.0334 15.714 96.8274 14.7292 96.8274 13.6023C96.8274 12.4659 97.0334 11.474 97.4453 10.6264C97.862 9.77888 98.4396 9.12074 99.1783 8.65199C99.9216 8.18324 100.786 7.94886 101.771 7.94886C102.755 7.94886 103.617 8.18324 104.356 8.65199C105.099 9.12074 105.677 9.77888 106.089 10.6264C106.505 11.474 106.714 12.4659 106.714 13.6023C106.714 14.7292 106.505 15.714 106.089 16.5568C105.677 17.3996 105.099 18.0554 104.356 18.5241C103.617 18.9929 102.755 19.2273 101.771 19.2273ZM101.771 17.7216C102.519 17.7216 103.134 17.5298 103.617 17.1463C104.1 16.7628 104.458 16.2585 104.69 15.6335C104.922 15.0085 105.038 14.3314 105.038 13.6023C105.038 12.8731 104.922 12.1937 104.69 11.5639C104.458 10.9342 104.1 10.4252 103.617 10.0369C103.134 9.64867 102.519 9.45455 101.771 9.45455C101.022 9.45455 100.407 9.64867 99.924 10.0369C99.4411 10.4252 99.0836 10.9342 98.8516 11.5639C98.6196 12.1937 98.5036 12.8731 98.5036 13.6023C98.5036 14.3314 98.6196 15.0085 98.8516 15.6335C99.0836 16.2585 99.4411 16.7628 99.924 17.1463C100.407 17.5298 101.022 17.7216 101.771 17.7216ZM114.13 8.09091V9.51136H108.25V8.09091H114.13ZM110.011 19V6.58523C110.011 5.96023 110.158 5.43939 110.451 5.02273C110.745 4.60606 111.126 4.29356 111.595 4.08523C112.064 3.87689 112.558 3.77273 113.079 3.77273C113.491 3.77273 113.827 3.80587 114.088 3.87216C114.348 3.93845 114.542 4 114.67 4.05682L114.187 5.50568C114.102 5.47727 113.984 5.44176 113.832 5.39915C113.685 5.35653 113.491 5.33523 113.25 5.33523C112.696 5.33523 112.296 5.4749 112.049 5.75426C111.808 6.03362 111.687 6.44318 111.687 6.98295V19H110.011ZM116.479 19V8.09091H118.156V19H116.479ZM117.332 6.27273C117.005 6.27273 116.723 6.16146 116.487 5.93892C116.254 5.71638 116.138 5.44886 116.138 5.13636C116.138 4.82386 116.254 4.55634 116.487 4.33381C116.723 4.11127 117.005 4 117.332 4C117.658 4 117.938 4.11127 118.17 4.33381C118.406 4.55634 118.525 4.82386 118.525 5.13636C118.525 5.44886 118.406 5.71638 118.17 5.93892C117.938 6.16146 117.658 6.27273 117.332 6.27273ZM122.902 4.45455V19H121.225V4.45455H122.902ZM130.545 19.2273C129.494 19.2273 128.588 18.9953 127.825 18.5312C127.068 18.0625 126.483 17.4091 126.071 16.571C125.664 15.7282 125.46 14.7481 125.46 13.6307C125.46 12.5133 125.664 11.5284 126.071 10.6761C126.483 9.81913 127.056 9.15152 127.79 8.6733C128.528 8.19034 129.39 7.94886 130.375 7.94886C130.943 7.94886 131.504 8.04356 132.058 8.23295C132.612 8.42235 133.116 8.73011 133.571 9.15625C134.026 9.57765 134.388 10.1364 134.658 10.8324C134.928 11.5284 135.062 12.3854 135.062 13.4034V14.1136H126.653V12.6648H133.358C133.358 12.0492 133.235 11.5 132.989 11.017C132.747 10.5341 132.402 10.1529 131.952 9.87358C131.507 9.59422 130.981 9.45455 130.375 9.45455C129.707 9.45455 129.13 9.62026 128.642 9.9517C128.159 10.2784 127.787 10.7045 127.527 11.2301C127.267 11.7557 127.136 12.3191 127.136 12.9205V13.8864C127.136 14.7102 127.278 15.4086 127.562 15.9815C127.851 16.5497 128.251 16.983 128.763 17.2812C129.274 17.5748 129.868 17.7216 130.545 17.7216C130.986 17.7216 131.384 17.66 131.739 17.5369C132.098 17.4091 132.409 17.2197 132.669 16.9688C132.929 16.7131 133.131 16.3958 133.273 16.017L134.892 16.4716C134.722 17.0208 134.435 17.5038 134.033 17.9205C133.63 18.3324 133.133 18.6544 132.541 18.8864C131.949 19.1136 131.284 19.2273 130.545 19.2273ZM145.226 4.45455V19H143.464V4.45455H145.226ZM148.53 19V8.09091H150.15V9.79545H150.292C150.519 9.21307 150.886 8.76089 151.392 8.43892C151.899 8.11222 152.507 7.94886 153.218 7.94886C153.937 7.94886 154.536 8.11222 155.015 8.43892C155.498 8.76089 155.874 9.21307 156.144 9.79545H156.257C156.537 9.23201 156.956 8.78456 157.515 8.45312C158.073 8.11695 158.743 7.94886 159.525 7.94886C160.5 7.94886 161.298 8.25426 161.918 8.86506C162.538 9.47112 162.848 10.4157 162.848 11.6989V19H161.172V11.6989C161.172 10.8939 160.952 10.3187 160.512 9.97301C160.071 9.62737 159.553 9.45455 158.956 9.45455C158.189 9.45455 157.595 9.68655 157.174 10.1506C156.752 10.6098 156.542 11.1922 156.542 11.8977V19H154.837V11.5284C154.837 10.9081 154.636 10.4086 154.233 10.0298C153.831 9.64631 153.312 9.45455 152.678 9.45455C152.242 9.45455 151.835 9.57055 151.456 9.80256C151.082 10.0346 150.779 10.3565 150.547 10.7685C150.32 11.1757 150.206 11.6468 150.206 12.1818V19H148.53ZM169.123 19.2557C168.432 19.2557 167.805 19.1255 167.241 18.8651C166.678 18.5999 166.23 18.2188 165.899 17.7216C165.567 17.2197 165.402 16.6136 165.402 15.9034C165.402 15.2784 165.525 14.7718 165.771 14.3835C166.017 13.9905 166.346 13.6828 166.758 13.4602C167.17 13.2377 167.625 13.072 168.122 12.9631C168.624 12.8494 169.128 12.7595 169.635 12.6932C170.297 12.608 170.835 12.544 171.247 12.5014C171.663 12.4541 171.967 12.3759 172.156 12.267C172.35 12.1581 172.447 11.9687 172.447 11.6989V11.642C172.447 10.9413 172.255 10.3968 171.872 10.0085C171.493 9.62027 170.918 9.42614 170.146 9.42614C169.346 9.42614 168.718 9.60133 168.264 9.9517C167.809 10.3021 167.49 10.6761 167.305 11.0739L165.714 10.5057C165.998 9.8428 166.377 9.3267 166.85 8.95739C167.329 8.58333 167.85 8.32292 168.413 8.17614C168.981 8.02462 169.54 7.94886 170.089 7.94886C170.44 7.94886 170.842 7.99148 171.297 8.0767C171.756 8.1572 172.199 8.32528 172.625 8.58097C173.056 8.83665 173.413 9.22254 173.697 9.73864C173.981 10.2547 174.123 10.946 174.123 11.8125V19H172.447V17.5227H172.362C172.248 17.7595 172.059 18.0128 171.794 18.2827C171.529 18.5526 171.176 18.7822 170.735 18.9716C170.295 19.161 169.758 19.2557 169.123 19.2557ZM169.379 17.75C170.042 17.75 170.6 17.6198 171.055 17.3594C171.514 17.099 171.86 16.7628 172.092 16.3509C172.329 15.9389 172.447 15.5057 172.447 15.0511V13.517C172.376 13.6023 172.22 13.6804 171.978 13.7514C171.742 13.8177 171.467 13.8769 171.154 13.929C170.847 13.9763 170.546 14.0189 170.252 14.0568C169.964 14.09 169.729 14.1184 169.549 14.142C169.114 14.1989 168.707 14.2912 168.328 14.419C167.954 14.5421 167.651 14.7292 167.419 14.9801C167.191 15.2263 167.078 15.5625 167.078 15.9886C167.078 16.571 167.293 17.0114 167.724 17.3097C168.16 17.6032 168.711 17.75 169.379 17.75ZM181.586 23.3182C180.776 23.3182 180.08 23.214 179.498 23.0057C178.915 22.8021 178.43 22.5322 178.042 22.196C177.658 21.8646 177.353 21.5095 177.126 21.1307L178.461 20.1932C178.612 20.392 178.804 20.6193 179.036 20.875C179.268 21.1354 179.585 21.3603 179.988 21.5497C180.395 21.7438 180.928 21.8409 181.586 21.8409C182.467 21.8409 183.193 21.6278 183.766 21.2017C184.339 20.7756 184.626 20.108 184.626 19.1989V16.983H184.484C184.361 17.1818 184.185 17.428 183.958 17.7216C183.736 18.0104 183.414 18.2685 182.992 18.4957C182.576 18.7183 182.012 18.8295 181.302 18.8295C180.421 18.8295 179.63 18.6212 178.93 18.2045C178.234 17.7879 177.682 17.1818 177.275 16.3864C176.872 15.5909 176.671 14.625 176.671 13.4886C176.671 12.3712 176.868 11.3982 177.261 10.5696C177.654 9.73627 178.201 9.09233 178.901 8.63778C179.602 8.1785 180.412 7.94886 181.33 7.94886C182.04 7.94886 182.604 8.06723 183.021 8.30398C183.442 8.53598 183.764 8.80114 183.987 9.09943C184.214 9.39299 184.389 9.63447 184.512 9.82386H184.683V8.09091H186.302V19.3125C186.302 20.25 186.089 21.0123 185.663 21.5994C185.241 22.1913 184.673 22.6245 183.958 22.8991C183.248 23.1785 182.457 23.3182 181.586 23.3182ZM181.529 17.3239C182.201 17.3239 182.77 17.17 183.234 16.8622C183.698 16.5545 184.05 16.1117 184.292 15.5341C184.533 14.9564 184.654 14.2652 184.654 13.4602C184.654 12.6742 184.536 11.9806 184.299 11.3793C184.062 10.7779 183.712 10.3068 183.248 9.96591C182.784 9.625 182.211 9.45455 181.529 9.45455C180.819 9.45455 180.227 9.63447 179.754 9.99432C179.285 10.3542 178.932 10.8371 178.695 11.4432C178.463 12.0492 178.347 12.7216 178.347 13.4602C178.347 14.2178 178.466 14.8878 178.702 15.4702C178.944 16.0478 179.299 16.5024 179.768 16.8338C180.241 17.1605 180.828 17.3239 181.529 17.3239ZM193.944 19.2273C192.893 19.2273 191.986 18.9953 191.224 18.5312C190.466 18.0625 189.881 17.4091 189.469 16.571C189.062 15.7282 188.859 14.7481 188.859 13.6307C188.859 12.5133 189.062 11.5284 189.469 10.6761C189.881 9.81913 190.454 9.15152 191.188 8.6733C191.927 8.19034 192.789 7.94886 193.773 7.94886C194.342 7.94886 194.903 8.04356 195.457 8.23295C196.011 8.42235 196.515 8.73011 196.969 9.15625C197.424 9.57765 197.786 10.1364 198.056 10.8324C198.326 11.5284 198.461 12.3854 198.461 13.4034V14.1136H190.052V12.6648H196.756C196.756 12.0492 196.633 11.5 196.387 11.017C196.146 10.5341 195.8 10.1529 195.35 9.87358C194.905 9.59422 194.379 9.45455 193.773 9.45455C193.106 9.45455 192.528 9.62026 192.04 9.9517C191.558 10.2784 191.186 10.7045 190.925 11.2301C190.665 11.7557 190.535 12.3191 190.535 12.9205V13.8864C190.535 14.7102 190.677 15.4086 190.961 15.9815C191.25 16.5497 191.65 16.983 192.161 17.2812C192.673 17.5748 193.267 17.7216 193.944 17.7216C194.384 17.7216 194.782 17.66 195.137 17.5369C195.497 17.4091 195.807 17.2197 196.067 16.9688C196.328 16.7131 196.529 16.3958 196.671 16.017L198.29 16.4716C198.12 17.0208 197.834 17.5038 197.431 17.9205C197.029 18.3324 196.531 18.6544 195.94 18.8864C195.348 19.1136 194.683 19.2273 193.944 19.2273Z" fill="#6C5CE7"/>
</svg>
